<svg width="100" height="100" viewBox="0 0 100 100" xmlns="http://www.w3.org/2000/svg"><title>Artboard</title><desc>Created with Sketch.</desc><g fill="none"><ellipse id="Oval" fill="#000" cx="50.5" cy="50" rx="49.5" ry="50"/><path d="M88 50c0 20.981-16.783 38-37.5 38s-37.5-17.019-37.5-38h4c0 18.784 15.005 34 33.5 34 18.495 0 33.5-15.216 33.5-34h4z" fill="#fff" fill-rule="nonzero"/><path fill="#fff" fill-rule="nonzero" d="M52 88v-54h-4v54z"/><path d="M50.5 35.5c5.799 0 10.5-4.701 10.5-10.5s-4.701-10.5-10.5-10.5-10.5 4.701-10.5 10.5 4.701 10.5 10.5 10.5zm0-3c-4.142 0-7.5-3.358-7.5-7.5 0-4.142 3.358-7.5 7.5-7.5 4.142 0 7.5 3.358 7.5 7.5 0 4.142-3.358 7.5-7.5 7.5z" fill="#fff" fill-rule="nonzero"/><path fill="#fff" fill-rule="nonzero" d="M36.5 44.27h27.069v-3h-27.069z"/><path fill="#fff" d="M5.002 52.5l10.605-10.605 10.605 10.605z"/><path fill="#fff" d="M74.895 52.5l10.605-10.605 10.605 10.605z"/></g></svg>