<svg version="1.1" id="Layer_1" xmlns="http://www.w3.org/2000/svg" x="0" y="0" viewBox="0 0 100 100" xml:space="preserve"><style>.st0{fill:#899098}</style><path class="st0" d="M44.698 49.053l13.529 11.983 19.79 5.097 3.849-1.727 1.248 4.126-.902.942-7.561 7.895-8.231-7.895H48.689L40.835 52.34zM61.945 73.972l-10.281 1.992 8.947 19.517 2.113-5.66 9.282-9.691zM97.226 66.133a49.7 49.7 0 002.24-9.627l-13.52 6.068 2.267 3.558h9.013zM44.434 19.956l10.495 20.39-6.897 5.869 14.393 8.074 11.394 4.348 26.116-8.606.002-.03c0-22.797-15.273-41.993-36.133-48.01l-19.37 17.965zM38.903 66.133L7.852 61.036 37.09 83.32l4.598-12.232zM86.413 70.631L69.921 89.522v6.298a50.167 50.167 0 0023.728-21.57l-7.236-3.619zM47.672 81.733L37.93 98.488c3.853.952 7.86 1.512 12.006 1.512 2.605 0 5.143-.26 7.641-.644l-9.905-17.623zM35.3 88.083l-9.157-4.858-4.427 8.038c3.2 2.193 6.683 3.986 10.36 5.395l3.224-8.575zM1.056 60.482C3.334 71.15 9.031 80.527 16.923 87.484l5.322-6.711L1.056 60.482z"/><path class="st0" d="M3.654 48.742l3.898 7.432 28.486 4.861-3.298-7.196 11.394-11.094L30.94 20.556 50.134.01c-.066 0-.131-.01-.198-.01C22.747 0 .674 21.715 0 48.742h3.654z"/></svg>